<?xml version="1.0" encoding="utf-8"?>
<svg width="800px" height="800px" viewBox="0 0 32 32" fill="none" xmlns="http://www.w3.org/2000/svg">
  <title>file_type_vite</title>
  <defs id="defs50">
    <linearGradient id="paint0_linear" x1="6.0002" y1="32.9999" x2="235" y2="344" gradientUnits="userSpaceOnUse" gradientTransform="matrix(0.085213, 0, 0, 0.085213, -1.732692, 33.910816)">
      <stop stop-color="#41D1FF" id="stop38"/>
      <stop offset="1" stop-color="#BD34FE" id="stop40"/>
    </linearGradient>
    <linearGradient id="paint1_linear" x1="194.651" y1="8.8182" x2="236.076" y2="292.989" gradientUnits="userSpaceOnUse" gradientTransform="matrix(0.045285, 0, 0, 0.045285, -2.514356, 6.285562)">
      <stop stop-color="#FFEA83" id="stop43"/>
      <stop offset="0.0833" stop-color="#FFDD35" id="stop45"/>
      <stop offset="1" stop-color="#FFA800" id="stop47"/>
    </linearGradient>
  </defs>
  <path d="M 18.075 27.638 L 28.631 27.638 C 28.966 27.638 29.295 27.551 29.586 27.385 C 29.876 27.218 30.117 26.979 30.286 26.692 C 30.453 26.404 30.541 26.077 30.541 25.746 C 30.541 25.413 30.452 25.087 30.284 24.798 L 23.195 12.628 C 23.028 12.341 22.787 12.102 22.497 11.936 C 22.206 11.771 21.877 11.682 21.541 11.682 C 21.206 11.682 20.877 11.771 20.587 11.936 C 20.296 12.102 20.056 12.341 19.888 12.628 L 18.075 15.743 L 14.53 9.654 C 14.363 9.366 14.122 9.128 13.831 8.961 C 13.541 8.795 13.212 8.708 12.877 8.708 C 12.542 8.708 12.212 8.795 11.921 8.961 C 11.631 9.128 11.39 9.366 11.223 9.654 L 2.401 24.798 C 2.233 25.087 2.145 25.413 2.145 25.746 C 2.145 26.077 2.233 26.404 2.4 26.692 C 2.567 26.979 2.809 27.218 3.099 27.385 C 3.39 27.551 3.72 27.638 4.054 27.638 L 10.68 27.638 C 13.306 27.638 15.242 26.495 16.574 24.266 L 19.809 18.713 L 21.54 15.743 L 26.741 24.667 L 19.809 24.667 L 18.075 27.638 Z M 10.573 24.665 L 5.948 24.662 L 12.88 12.765 L 16.339 18.713 L 14.023 22.69 C 13.138 24.137 12.133 24.665 10.573 24.665 Z" fill="url(#paint0_linear)" style=""/>
  <path d="M 10.753 6.357 L 4.587 7.565 C 4.485 7.585 4.41 7.671 4.404 7.774 L 4.025 14.181 C 4.016 14.332 4.154 14.448 4.301 14.415 L 6.018 14.019 C 6.179 13.981 6.324 14.123 6.291 14.284 L 5.781 16.782 C 5.747 16.951 5.904 17.094 6.068 17.044 L 7.129 16.722 C 7.293 16.672 7.451 16.816 7.416 16.985 L 6.606 20.908 C 6.555 21.153 6.882 21.287 7.018 21.077 L 7.109 20.936 L 12.134 10.908 C 12.218 10.74 12.073 10.549 11.888 10.584 L 10.121 10.926 C 9.955 10.958 9.814 10.803 9.861 10.64 L 11.014 6.642 C 11.061 6.48 10.919 6.324 10.753 6.357 Z" fill="url(#paint1_linear)" style=""/>
</svg>